<?xml version="1.0" encoding="utf-8"?>
<!-- Generator: Adobe Illustrator 24.0.2, SVG Export Plug-In . SVG Version: 6.00 Build 0)  -->
<svg version="1.1" id="Capa_2_1_" xmlns="http://www.w3.org/2000/svg" xmlns:xlink="http://www.w3.org/1999/xlink" x="0px" y="0px"
	 viewBox="0 0 1360.6 652" style="enable-background:new 0 0 1360.6 652;" xml:space="preserve">
<style type="text/css">
	.st0{fill:#FFFFFF;}
	.st1{fill:#FFC629;}
	.st2{fill:#0075C9;}
</style>
<rect y="0" class="st0" width="1360.6" height="652"/>
<polygon class="st1" points="506.2,0 693.2,326 506.2,652 0,652 0,0 "/>
<polygon class="st2" points="668,0 855,326 668,652 1360.6,652 1360.6,0 "/>
<g>
	<g id="TypeScript">
		<path class="st0" d="M919.4,399.7v6.7H902v48.7h-7.8v-48.7h-17.4v-6.7H919.4z"/>
		<path class="st0" d="M920.4,462.9c0.6,0.3,1.3,0.5,2.3,0.8c0.9,0.2,1.9,0.4,2.8,0.4c2.9,0,5.2-0.7,6.9-2s3.1-3.4,4.5-6.4
			c-3.4-6.4-6.5-13.2-9.4-20.4c-2.9-7.2-5.3-14.4-7.2-21.8h8c0.6,2.4,1.3,5,2.1,7.8s1.7,5.6,2.8,8.6c1,2.9,2.1,5.9,3.3,8.8
			s2.4,5.8,3.7,8.5c2-5.6,3.8-11.1,5.3-16.6s2.9-11.1,4.2-17h7.7c-1.9,7.8-4.1,15.4-6.4,22.6c-2.3,7.2-4.9,14-7.6,20.3
			c-1.1,2.4-2.2,4.5-3.3,6.2s-2.4,3.2-3.8,4.3c-1.4,1.1-2.9,1.9-4.7,2.5c-1.7,0.5-3.7,0.8-5.9,0.8c-0.6,0-1.2,0-1.8-0.1
			s-1.3-0.2-1.9-0.3c-0.6-0.1-1.2-0.3-1.7-0.4c-0.5-0.2-0.9-0.3-1.1-0.4L920.4,462.9z"/>
		<path class="st0" d="M1001.7,434.4c0,3.1-0.4,6.1-1.2,8.7c-0.8,2.7-2,5-3.6,6.9s-3.6,3.4-5.9,4.5c-2.3,1.1-5,1.6-8,1.6
			c-2.4,0-4.5-0.3-6.4-1s-3.2-1.3-4.1-1.8V470h-7.4v-55.1c1.8-0.4,4-0.9,6.6-1.4s5.7-0.8,9.2-0.8c3.2,0,6.1,0.5,8.6,1.5
			c2.6,1,4.7,2.5,6.6,4.3c1.8,1.9,3.2,4.1,4.2,6.8C1001.2,428.1,1001.7,431.1,1001.7,434.4z M993.9,434.4c0-4.9-1.2-8.6-3.6-11.2
			c-2.4-2.6-5.6-3.9-9.6-3.9c-2.2,0-4,0.1-5.2,0.2c-1.3,0.2-2.3,0.3-3,0.6v26.2c0.9,0.7,2.2,1.5,3.9,2.2s3.6,1,5.6,1
			c2.1,0,4-0.4,5.5-1.2c1.5-0.8,2.8-1.8,3.7-3.2s1.7-3,2.1-4.8C993.7,438.6,993.9,436.6,993.9,434.4z"/>
		<path class="st0" d="M1009.9,434.4c0-3.7,0.5-6.9,1.6-9.6s2.5-5,4.2-6.8c1.8-1.8,3.8-3.2,6.1-4.1s4.6-1.4,7-1.4
			c5.6,0,9.9,1.7,12.9,5.2s4.5,8.8,4.5,16c0,0.3,0,0.7,0,1.2s0,1-0.1,1.4h-28.5c0.3,4.3,1.6,7.6,3.8,9.8c2.2,2.2,5.6,3.4,10.2,3.4
			c2.6,0,4.8-0.2,6.6-0.7c1.8-0.5,3.1-0.9,4-1.3l1,6.2c-0.9,0.5-2.5,1-4.8,1.5s-4.8,0.8-7.7,0.8c-3.6,0-6.8-0.5-9.4-1.6
			s-4.8-2.6-6.5-4.5s-3-4.2-3.8-6.8S1009.9,437.6,1009.9,434.4z M1038.4,430.4c0.1-3.4-0.8-6.1-2.5-8.3c-1.7-2.2-4.1-3.2-7.2-3.2
			c-1.7,0-3.2,0.3-4.5,1c-1.3,0.7-2.4,1.5-3.3,2.6s-1.6,2.3-2.1,3.7c-0.5,1.4-0.8,2.8-1,4.2L1038.4,430.4L1038.4,430.4z"/>
		<path class="st0" d="M1070.3,449.6c8.1,0,12.2-2.8,12.2-8.3c0-1.7-0.4-3.2-1.1-4.4s-1.7-2.2-2.9-3.1c-1.2-0.9-2.6-1.6-4.2-2.3
			c-1.6-0.6-3.2-1.3-5-1.9c-2-0.7-3.9-1.5-5.8-2.4c-1.8-0.9-3.4-1.9-4.7-3.1c-1.3-1.2-2.4-2.6-3.2-4.3c-0.8-1.7-1.2-3.7-1.2-6
			c0-4.9,1.7-8.6,5-11.4c3.3-2.7,7.9-4.1,13.7-4.1c3.4,0,6.4,0.4,9.2,1.1c2.7,0.7,4.8,1.5,6,2.4l-2.5,6.3c-1.1-0.7-2.8-1.4-5-2
			c-2.2-0.7-4.8-1-7.7-1c-1.5,0-2.9,0.2-4.2,0.5c-1.3,0.3-2.4,0.8-3.4,1.4s-1.7,1.5-2.3,2.4c-0.6,1-0.8,2.1-0.8,3.5
			c0,1.5,0.3,2.7,0.9,3.8c0.6,1,1.4,1.9,2.5,2.7c1.1,0.8,2.3,1.5,3.7,2.1c1.4,0.6,3,1.3,4.7,1.9c2.4,1,4.6,1.9,6.6,2.9
			s3.7,2.1,5.2,3.4s2.6,2.9,3.4,4.8c0.8,1.8,1.2,4.1,1.2,6.7c0,4.9-1.8,8.6-5.3,11.2s-8.5,3.9-15,3.9c-2.2,0-4.2-0.1-6-0.4
			s-3.5-0.6-4.9-1s-2.7-0.8-3.7-1.3s-1.9-0.8-2.4-1.2l2.3-6.4c1.2,0.7,3.1,1.5,5.6,2.3C1063.6,449.2,1066.6,449.6,1070.3,449.6z"/>
		<path class="st0" d="M1117.5,456.1c-3.4,0-6.3-0.5-8.8-1.6s-4.7-2.6-6.4-4.5c-1.7-1.9-3-4.2-3.9-6.8c-0.9-2.6-1.3-5.6-1.3-8.8
			s0.5-6.1,1.4-8.8c0.9-2.7,2.3-5,4-6.9s3.8-3.5,6.3-4.6s5.2-1.6,8.3-1.6c1.9,0,3.7,0.2,5.6,0.5s3.7,0.8,5.4,1.5l-1.7,6.3
			c-1.1-0.5-2.4-1-3.9-1.3s-3-0.5-4.7-0.5c-4.2,0-7.3,1.3-9.6,3.9c-2.2,2.6-3.3,6.4-3.3,11.4c0,2.2,0.3,4.3,0.8,6.2
			c0.5,1.9,1.3,3.5,2.4,4.8s2.5,2.4,4.2,3.1s3.8,1.1,6.2,1.1c2,0,3.8-0.2,5.4-0.6s2.9-0.8,3.8-1.2l1,6.2c-0.4,0.3-1,0.5-1.8,0.8
			c-0.8,0.2-1.7,0.5-2.7,0.6c-1,0.2-2.1,0.3-3.2,0.5C1119.7,456.1,1118.6,456.1,1117.5,456.1z"/>
		<path class="st0" d="M1152,412.7c0.6,0,1.4,0,2.2,0.1c0.8,0.1,1.6,0.2,2.4,0.3c0.8,0.1,1.5,0.3,2.2,0.4s1.2,0.3,1.5,0.4l-1.3,6.5
			c-0.6-0.2-1.6-0.5-2.9-0.8c-1.4-0.3-3.1-0.4-5.2-0.4c-1.4,0-2.8,0.1-4.1,0.4c-1.4,0.3-2.3,0.5-2.7,0.6v35h-7.4v-39.8
			c1.8-0.6,3.9-1.2,6.6-1.8C1145.8,413,1148.8,412.7,1152,412.7z"/>
		<path class="st0" d="M1171.2,406c-1.3,0-2.5-0.4-3.4-1.3s-1.4-2.1-1.4-3.6s0.5-2.7,1.4-3.6s2.1-1.3,3.4-1.3s2.5,0.4,3.4,1.3
			s1.4,2.1,1.4,3.6s-0.5,2.7-1.4,3.6S1172.5,406,1171.2,406z M1175,455.2h-7.4v-41.6h7.4V455.2z"/>
		<path class="st0" d="M1224.4,434.4c0,3.1-0.4,6.1-1.2,8.7c-0.8,2.7-2,5-3.6,6.9s-3.6,3.4-5.9,4.5s-5,1.6-8,1.6
			c-2.4,0-4.5-0.3-6.4-1s-3.2-1.3-4.1-1.8V470h-7.4v-55.1c1.8-0.4,4-0.9,6.6-1.4s5.7-0.8,9.2-0.8c3.2,0,6.1,0.5,8.6,1.5
			c2.6,1,4.7,2.5,6.6,4.3c1.8,1.9,3.2,4.1,4.2,6.8C1223.9,428.1,1224.4,431.1,1224.4,434.4z M1216.7,434.4c0-4.9-1.2-8.6-3.6-11.2
			s-5.6-3.9-9.6-3.9c-2.2,0-4,0.1-5.2,0.2c-1.3,0.2-2.3,0.3-3,0.6v26.2c0.9,0.7,2.2,1.5,3.9,2.2c1.7,0.7,3.6,1,5.6,1
			c2.1,0,4-0.4,5.5-1.2c1.5-0.8,2.8-1.8,3.7-3.2s1.7-3,2.1-4.8C1216.4,438.6,1216.7,436.6,1216.7,434.4z"/>
		<path class="st0" d="M1241.9,413.6h15.8v6.2h-15.8V439c0,2.1,0.2,3.8,0.5,5.2c0.3,1.4,0.8,2.4,1.4,3.2c0.6,0.8,1.4,1.3,2.4,1.6
			s2.1,0.5,3.4,0.5c2.2,0,4-0.3,5.4-0.8s2.3-0.9,2.8-1.1l1.4,6.2c-0.7,0.4-2.1,0.8-3.9,1.4c-1.9,0.6-4,0.8-6.4,0.8
			c-2.8,0-5.2-0.4-7-1.1s-3.3-1.8-4.4-3.2c-1.1-1.4-1.9-3.2-2.4-5.3c-0.5-2.1-0.7-4.5-0.7-7.3V402l7.4-1.3L1241.9,413.6
			L1241.9,413.6z"/>
	</g>
	<g id="TS">
		<path class="st0" d="M1069.5,186v34.6h-54.3v145.6h-40.6V220.5h-54.3V186H1069.5z"/>
		<path class="st0" d="M1144.7,335.2c5.7,0,10.4-0.5,14.2-1.4c3.7-1,6.7-2.2,9-3.9c2.2-1.6,3.8-3.6,4.7-5.9c0.9-2.2,1.3-4.8,1.3-7.5
			c0-5.9-2.8-10.8-8.3-14.7c-5.5-3.9-15.1-8.1-28.6-12.6c-5.9-2.1-11.8-4.5-17.7-7.1c-5.9-2.7-11.2-6.1-15.9-10.1
			c-4.7-4.1-8.5-9-11.4-14.8c-3-5.8-4.4-12.9-4.4-21.2s1.6-15.8,4.7-22.5s7.5-12.4,13.3-17c5.7-4.7,12.7-8.3,20.8-10.8
			c8.1-2.5,17.3-3.8,27.6-3.8c12.1,0,22.6,1.3,31.5,3.9s16.1,5.5,21.8,8.6l-11.7,32c-5-2.6-10.6-4.9-16.8-6.9c-6.2-2-13.6-3-22.2-3
			c-9.7,0-16.7,1.3-20.9,4c-4.2,2.7-6.4,6.8-6.4,12.4c0,3.3,0.8,6.1,2.3,8.3c1.6,2.3,3.8,4.3,6.6,6.1c2.9,1.8,6.2,3.5,9.9,4.9
			c3.7,1.5,7.8,3,12.4,4.5c9.4,3.5,17.5,6.9,24.4,10.3s12.7,7.3,17.3,11.8c4.6,4.5,8,9.8,10.3,15.9c2.2,6.1,3.4,13.4,3.4,22.1
			c0,16.8-5.9,29.9-17.7,39.1c-11.8,9.3-29.6,13.9-53.3,13.9c-8,0-15.2-0.5-21.6-1.4c-6.4-1-12.1-2.1-17-3.5s-9.2-2.9-12.7-4.4
			c-3.6-1.6-6.5-3-9-4.4l11.4-32.2c5.4,2.9,12,5.6,19.9,7.9C1123.6,334,1133.2,335.2,1144.7,335.2z"/>
	</g>
</g>
<g>
	<g id="JavaScript">
		<path d="M140.5,437.4c0,2.7-0.3,5.1-0.8,7.4c-0.6,2.3-1.5,4.3-3,6c-1.4,1.7-3.3,3.1-5.7,4.1s-5.3,1.5-8.9,1.5
			c-1.8,0-3.5-0.1-5-0.4s-2.9-0.7-4.1-1.1c-1.2-0.5-2.3-0.9-3.2-1.4c-0.9-0.5-1.6-1-2.2-1.5l3-6.2c1.1,0.8,2.6,1.6,4.4,2.5
			s4,1.3,6.7,1.3c3.8,0,6.6-1,8.4-2.9s2.6-5.3,2.6-10v-36.9h7.8L140.5,437.4L140.5,437.4z"/>
		<path d="M166.8,412.6c3,0,5.5,0.4,7.6,1.2c2.1,0.8,3.7,1.9,5,3.3s2.1,3.1,2.7,5c0.5,1.9,0.8,4.1,0.8,6.4v26
			c-0.6,0.1-1.5,0.3-2.7,0.4c-1.1,0.2-2.4,0.4-3.9,0.5c-1.4,0.2-3,0.3-4.7,0.4s-3.3,0.2-5,0.2c-2.3,0-4.5-0.2-6.5-0.7
			s-3.7-1.2-5.1-2.3s-2.6-2.4-3.4-4.1c-0.8-1.7-1.2-3.8-1.2-6.2c0-2.3,0.5-4.3,1.4-5.9c0.9-1.7,2.2-3,3.8-4s3.5-1.8,5.6-2.2
			c2.1-0.5,4.4-0.7,6.7-0.7c0.7,0,1.5,0,2.3,0.1s1.6,0.2,2.3,0.3c0.7,0.1,1.3,0.3,1.9,0.4c0.5,0.1,0.9,0.2,1.1,0.2V429
			c0-1.2-0.1-2.4-0.4-3.6c-0.3-1.2-0.7-2.3-1.4-3.2c-0.7-0.9-1.6-1.7-2.8-2.2c-1.2-0.6-2.8-0.8-4.7-0.8c-2.5,0-4.6,0.2-6.4,0.5
			c-1.8,0.3-3.2,0.7-4.1,1.1l-0.9-6.2c1-0.4,2.6-0.8,4.8-1.2C161.8,412.8,164.2,412.6,166.8,412.6z M167.4,449.9
			c1.8,0,3.3,0,4.7-0.1s2.5-0.2,3.4-0.4V437c-0.5-0.3-1.4-0.5-2.6-0.7c-1.2-0.2-2.7-0.3-4.4-0.3c-1.1,0-2.3,0.1-3.6,0.2
			c-1.3,0.2-2.4,0.5-3.4,1s-1.9,1.2-2.6,2.1c-0.7,0.9-1,2-1,3.5c0,2.7,0.9,4.5,2.6,5.6C162.2,449.4,164.5,449.9,167.4,449.9z"/>
		<path d="M226.4,413.7c-2.1,7.8-4.5,15.3-7.3,22.4s-5.5,13.5-8.1,19.2h-6.7c-2.6-5.7-5.3-12.1-8.1-19.2s-5.2-14.6-7.3-22.4h8
			c0.6,2.6,1.4,5.4,2.3,8.4s1.8,5.9,2.8,8.8s2,5.7,3,8.4c1,2.7,2,5.1,2.9,7.3c0.9-2.1,1.9-4.6,2.9-7.3c1-2.7,2-5.5,3-8.4
			s1.9-5.8,2.8-8.8s1.6-5.7,2.3-8.4H226.4z"/>
		<path d="M247.5,412.6c3,0,5.5,0.4,7.6,1.2c2.1,0.8,3.7,1.9,5,3.3s2.1,3.1,2.7,5c0.5,1.9,0.8,4.1,0.8,6.4v26
			c-0.6,0.1-1.5,0.3-2.7,0.4c-1.1,0.2-2.4,0.4-3.9,0.5c-1.4,0.2-3,0.3-4.7,0.4s-3.3,0.2-5,0.2c-2.3,0-4.5-0.2-6.5-0.7
			s-3.7-1.2-5.1-2.3s-2.6-2.4-3.4-4.1c-0.8-1.7-1.2-3.8-1.2-6.2c0-2.3,0.5-4.3,1.4-5.9c0.9-1.7,2.2-3,3.8-4s3.5-1.8,5.6-2.2
			c2.1-0.5,4.4-0.7,6.7-0.7c0.7,0,1.5,0,2.3,0.1s1.6,0.2,2.3,0.3c0.7,0.1,1.3,0.3,1.9,0.4c0.5,0.1,0.9,0.2,1.1,0.2V429
			c0-1.2-0.1-2.4-0.4-3.6c-0.3-1.2-0.7-2.3-1.4-3.2c-0.7-0.9-1.6-1.7-2.8-2.2c-1.2-0.6-2.8-0.8-4.7-0.8c-2.5,0-4.6,0.2-6.4,0.5
			c-1.8,0.3-3.2,0.7-4.1,1.1l-0.9-6.2c1-0.4,2.6-0.8,4.8-1.2C242.5,412.8,244.9,412.6,247.5,412.6z M248.2,449.9
			c1.8,0,3.3,0,4.7-0.1s2.5-0.2,3.4-0.4V437c-0.5-0.3-1.4-0.5-2.6-0.7s-2.7-0.3-4.4-0.3c-1.1,0-2.3,0.1-3.6,0.2
			c-1.3,0.2-2.4,0.5-3.4,1s-1.9,1.2-2.6,2.1c-0.7,0.9-1,2-1,3.5c0,2.7,0.9,4.5,2.6,5.6C242.9,449.4,245.2,449.9,248.2,449.9z"/>
		<path d="M289.2,449.8c8.1,0,12.2-2.8,12.2-8.3c0-1.7-0.4-3.2-1.1-4.4c-0.7-1.2-1.7-2.2-2.9-3.1c-1.2-0.9-2.6-1.6-4.2-2.3
			c-1.6-0.6-3.2-1.3-5-1.9c-2-0.7-3.9-1.5-5.8-2.4c-1.8-0.9-3.4-1.9-4.7-3.1c-1.3-1.2-2.4-2.6-3.2-4.3c-0.8-1.7-1.2-3.7-1.2-6
			c0-4.9,1.7-8.6,5-11.4c3.3-2.7,7.9-4.1,13.7-4.1c3.4,0,6.4,0.4,9.2,1.1c2.7,0.7,4.8,1.5,6,2.4l-2.5,6.3c-1.1-0.7-2.8-1.4-5-2
			c-2.2-0.7-4.8-1-7.7-1c-1.5,0-2.9,0.2-4.2,0.5c-1.3,0.3-2.4,0.8-3.4,1.4s-1.7,1.5-2.3,2.4c-0.6,1-0.8,2.1-0.8,3.5
			c0,1.5,0.3,2.7,0.9,3.8c0.6,1,1.4,1.9,2.5,2.7c1.1,0.8,2.3,1.5,3.7,2.1c1.4,0.6,3,1.3,4.7,1.9c2.4,1,4.6,1.9,6.6,2.9
			s3.7,2.1,5.2,3.4s2.6,2.9,3.4,4.8c0.8,1.8,1.2,4.1,1.2,6.7c0,4.9-1.8,8.6-5.3,11.2s-8.5,3.9-15,3.9c-2.2,0-4.2-0.1-6-0.4
			s-3.5-0.6-4.9-1s-2.7-0.8-3.7-1.3s-1.9-0.8-2.4-1.2l2.3-6.4c1.2,0.7,3.1,1.5,5.6,2.3C282.5,449.3,285.6,449.8,289.2,449.8z"/>
		<path d="M336.5,456.2c-3.4,0-6.3-0.5-8.8-1.6s-4.7-2.6-6.4-4.5c-1.7-1.9-3-4.2-3.9-6.8c-0.9-2.6-1.3-5.6-1.3-8.8s0.5-6.1,1.4-8.8
			c0.9-2.7,2.3-5,4-6.9s3.8-3.5,6.3-4.6s5.2-1.6,8.3-1.6c1.9,0,3.7,0.2,5.6,0.5s3.7,0.8,5.4,1.5l-1.7,6.3c-1.1-0.5-2.4-1-3.9-1.3
			s-3-0.5-4.7-0.5c-4.2,0-7.3,1.3-9.6,3.9c-2.2,2.6-3.3,6.4-3.3,11.4c0,2.2,0.3,4.3,0.8,6.2c0.5,1.9,1.3,3.5,2.4,4.8
			s2.5,2.4,4.2,3.1s3.8,1.1,6.2,1.1c2,0,3.8-0.2,5.4-0.6s2.9-0.8,3.8-1.2l1,6.2c-0.4,0.3-1,0.5-1.8,0.8c-0.8,0.2-1.7,0.5-2.7,0.6
			c-1,0.2-2.1,0.3-3.2,0.5C338.7,456.2,337.6,456.2,336.5,456.2z"/>
		<path d="M371,412.8c0.6,0,1.4,0,2.2,0.1c0.8,0.1,1.6,0.2,2.4,0.3c0.8,0.1,1.5,0.3,2.2,0.4s1.2,0.3,1.5,0.4l-1.3,6.5
			c-0.6-0.2-1.6-0.5-2.9-0.8c-1.4-0.3-3.1-0.4-5.2-0.4c-1.4,0-2.8,0.1-4.1,0.4s-2.3,0.5-2.7,0.6v35h-7.4v-39.8
			c1.8-0.6,3.9-1.2,6.6-1.8C364.8,413.1,367.7,412.8,371,412.8z"/>
		<path d="M390.2,406.2c-1.3,0-2.5-0.4-3.4-1.3s-1.4-2.1-1.4-3.6s0.5-2.7,1.4-3.6s2.1-1.3,3.4-1.3s2.5,0.4,3.4,1.3s1.4,2.1,1.4,3.6
			s-0.5,2.7-1.4,3.6C392.6,405.7,391.5,406.2,390.2,406.2z M393.9,455.3h-7.4v-41.6h7.4V455.3z"/>
		<path d="M443.4,434.6c0,3.1-0.4,6.1-1.2,8.7c-0.8,2.7-2,5-3.6,6.9s-3.6,3.4-5.9,4.5s-5,1.6-8,1.6c-2.4,0-4.5-0.3-6.4-1
			s-3.2-1.3-4.1-1.8v16.6h-7.4V415c1.8-0.4,4-0.9,6.6-1.4s5.7-0.8,9.2-0.8c3.2,0,6.1,0.5,8.6,1.5c2.6,1,4.7,2.5,6.6,4.3
			c1.8,1.9,3.2,4.1,4.2,6.8C442.9,428.2,443.4,431.2,443.4,434.6z M435.6,434.6c0-4.9-1.2-8.6-3.6-11.2s-5.6-3.9-9.6-3.9
			c-2.2,0-4,0.1-5.2,0.2c-1.3,0.2-2.3,0.3-3,0.6v26.2c0.9,0.7,2.2,1.5,3.9,2.2c1.7,0.7,3.6,1,5.6,1c2.1,0,4-0.4,5.5-1.2
			c1.5-0.8,2.8-1.8,3.7-3.2s1.7-3,2.1-4.8C435.4,438.7,435.6,436.7,435.6,434.6z"/>
		<path d="M460.8,413.7h15.8v6.2h-15.8v19.2c0,2.1,0.2,3.8,0.5,5.2c0.3,1.4,0.8,2.4,1.4,3.2c0.6,0.8,1.4,1.3,2.4,1.6
			s2.1,0.5,3.4,0.5c2.2,0,4-0.3,5.4-0.8s2.3-0.9,2.8-1.1l1.4,6.2c-0.7,0.4-2.1,0.8-3.9,1.4c-1.9,0.6-4,0.8-6.4,0.8
			c-2.8,0-5.2-0.4-7-1.1s-3.3-1.8-4.4-3.2c-1.1-1.4-1.9-3.2-2.4-5.3c-0.5-2.1-0.7-4.5-0.7-7.3v-37.1l7.4-1.3v12.9L460.8,413.7
			L460.8,413.7z"/>
	</g>
	<g id="JS">
		<path d="M271.7,305.7c0,8.8-1,17.2-3,25s-5.5,14.6-10.4,20.4s-11.6,10.4-20,13.8s-19,5.1-31.9,5.1c-11.8,0-21.9-1.4-30.4-4.3
			s-15.5-6.2-21.1-10l13.5-31.5c5,2.9,10.4,5.5,16.1,7.8c5.7,2.3,12,3.4,18.7,3.4c9.9,0,17-2.4,21.3-7.3s6.5-13,6.5-24.4V186.1h40.6
			L271.7,305.7L271.7,305.7z"/>
		<path d="M359.8,335.3c5.7,0,10.4-0.5,14.2-1.4c3.7-1,6.7-2.3,9-3.9s3.8-3.6,4.7-5.9c0.9-2.3,1.3-4.8,1.3-7.5
			c0-5.9-2.8-10.8-8.3-14.7c-5.5-3.9-15.1-8.1-28.6-12.6c-5.9-2.1-11.8-4.5-17.7-7.1c-5.9-2.7-11.2-6.1-15.9-10.1
			c-4.7-4.1-8.5-9-11.4-14.8c-2.9-5.8-4.4-12.9-4.4-21.2s1.6-15.8,4.7-22.5s7.5-12.4,13.3-17c5.7-4.7,12.7-8.3,20.8-10.8
			c8.1-2.5,17.3-3.8,27.6-3.8c12.1,0,22.6,1.3,31.5,3.9s16.1,5.5,21.8,8.6l-11.7,32c-5-2.6-10.6-4.9-16.8-6.9c-6.2-2-13.6-3-22.2-3
			c-9.7,0-16.7,1.3-20.9,4c-4.2,2.7-6.4,6.8-6.4,12.4c0,3.3,0.8,6.1,2.3,8.3c1.6,2.3,3.8,4.3,6.6,6.1c2.9,1.8,6.2,3.5,9.9,4.9
			c3.7,1.5,7.8,3,12.4,4.5c9.4,3.5,17.5,6.9,24.4,10.3s12.7,7.3,17.3,11.8c4.6,4.5,8,9.8,10.3,15.9s3.4,13.4,3.4,22.1
			c0,16.8-5.9,29.9-17.7,39.1c-11.8,9.3-29.6,13.9-53.3,13.9c-8,0-15.2-0.5-21.6-1.4c-6.4-1-12.1-2.1-17-3.5s-9.2-2.9-12.7-4.4
			c-3.6-1.6-6.5-3-9-4.4l11.4-32.2c5.4,2.9,12,5.6,19.9,7.9C338.7,334.2,348.4,335.3,359.8,335.3z"/>
	</g>
</g>
</svg>
